<svg width="610" height="365" viewBox="0 0 610 365" fill="none" xmlns="http://www.w3.org/2000/svg">
  <defs>
    <pattern id="dots" width="16" height="16" patternUnits="userSpaceOnUse">
      <circle cx="1" cy="1" r="1" fill="#E8E9EC" />
    </pattern>
  </defs>
  <rect width="610" height="365" fill="#FAFAFB" />
  <rect width="610" height="365" fill="url(#dots)" />
  <g transform="translate(211 21) scale(0.046875)" stroke="#F43D32" stroke-width="64" stroke-linecap="round" stroke-linejoin="round">
    <path d="M710 211L548 118Q512 97 476 118L180 289Q144 310 144 352V692Q144 734 180 755L476 926Q512 947 548 926L844 755Q880 734 880 692V350Q880 308 844 287L787 254" />
    <path d="M244 490V382Q244 340 280 319L476 206Q512 185 548 206L744 319Q780 340 780 382V550Q780 592 744 613L640 673" />
    <path d="M574 703L548 718Q512 739 476 718L380 663Q344 642 344 600V452Q344 410 380 389L476 334Q512 313 548 334L644 389Q680 410 680 452V562Q680 604 644 625L610 645" />
  </g>
  <text x="270" y="58" fill="#1B1D21" font-family="-apple-system, BlinkMacSystemFont, 'Segoe UI', sans-serif" font-size="29" font-weight="700">LocalMind</text>
  <path d="M259 190C282 175 324 175 348 190" stroke="#B8BBC2" stroke-width="6" stroke-linecap="round" />
  <path d="M336 177L351 190L337 204" stroke="#B8BBC2" stroke-width="6" stroke-linecap="round" stroke-linejoin="round" />
  <text x="305" y="337" fill="#64676E" font-family="-apple-system, BlinkMacSystemFont, 'Segoe UI', sans-serif" font-size="14" text-anchor="middle">Drag LocalMind to Applications</text>
</svg>
